<svg width="16" height="16" viewBox="0 0 16 16" fill="none" xmlns="http://www.w3.org/2000/svg">
<path d="M8.00065 10.6667C9.47341 10.6667 10.6673 9.4728 10.6673 8.00004C10.6673 6.52728 9.47341 5.33337 8.00065 5.33337C6.52789 5.33337 5.33398 6.52728 5.33398 8.00004C5.33398 9.4728 6.52789 10.6667 8.00065 10.6667Z" stroke="black" stroke-width="1.5" stroke-linecap="round" stroke-linejoin="round"/>
<path d="M10.6673 5.33333V8.66666C10.6673 9.19709 10.878 9.7058 11.2531 10.0809C11.6282 10.4559 12.1369 10.6667 12.6673 10.6667C13.1978 10.6667 13.7065 10.4559 14.0815 10.0809C14.4566 9.7058 14.6673 9.19709 14.6673 8.66666V7.99999C14.6672 6.49535 14.1581 5.03498 13.2228 3.85635C12.2875 2.67772 10.981 1.85014 9.51575 1.50819C8.05048 1.16624 6.51261 1.33002 5.15222 1.9729C3.79183 2.61579 2.68892 3.69996 2.02283 5.04914C1.35674 6.39832 1.16663 7.93315 1.48344 9.40407C1.80024 10.875 2.60531 12.1955 3.76774 13.1508C4.93018 14.1062 6.38161 14.6402 7.88604 14.6661C9.39046 14.692 10.8594 14.2082 12.054 13.2933" stroke="black" stroke-width="1.5" stroke-linecap="round" stroke-linejoin="round"/>
</svg>
