<svg width="16" height="16" viewBox="0 0 16 16" fill="none" xmlns="http://www.w3.org/2000/svg">
<path d="M13.8692 4.71635H11.5976L10.238 3.34327C10.238 3.34327 10.2313 3.33654 10.2279 3.33654L10.2212 3.32981C10.0192 3.12788 9.74664 3 9.43702 3H6.6101C6.28029 3 5.9875 3.14135 5.78221 3.36683V3.37019L4.45288 4.71635H2.13077C1.50481 4.71635 1 5.20769 1 5.83365V12.6351C1 13.2611 1.50481 13.7692 2.13077 13.7692H13.8692C14.4918 13.7692 15 13.2611 15 12.6351V5.83365C15 5.20769 14.4918 4.71635 13.8692 4.71635ZM8 12.0697C6.28702 12.0697 4.89038 10.6697 4.89038 8.95337C4.89038 7.23365 6.28702 5.83702 8 5.83702C9.71635 5.83702 11.1096 7.23365 11.1096 8.95337C11.1096 10.6697 9.71635 12.0697 8 12.0697ZM13.6572 6.51683C13.3981 6.51683 13.1861 6.30481 13.1861 6.04231C13.1861 5.77981 13.3981 5.56779 13.6572 5.56779C13.9163 5.56779 14.1284 5.77981 14.1284 6.04231C14.1284 6.30481 13.9163 6.51683 13.6572 6.51683Z" fill="black"/>
<path d="M7.99944 6.59753C6.70039 6.59753 5.65039 7.6509 5.65039 8.9533C5.65039 10.2523 6.70039 11.3091 7.99944 11.3091C9.29511 11.3091 10.3485 10.2557 10.3485 8.9533C10.3485 7.6509 9.29511 6.59753 7.99944 6.59753Z" fill="black"/>
</svg>
