<svg width="16" height="16" viewBox="0 0 16 16" fill="none" xmlns="http://www.w3.org/2000/svg">
<path d="M7.99998 0C3.58473 0.00727499 0.00727499 3.58473 0 7.99998V13.6C0.0038625 14.9238 1.07614 15.9961 2.4 16H7.99998C12.4183 16 16 12.4182 16 7.99998C16 3.58173 12.4183 0 7.99998 0ZM8.80001 12C8.80001 12.4418 8.44184 12.8 8.00002 12.8C7.55816 12.8 7.19999 12.4418 7.19999 12V7.99998H6.40001C5.95818 7.99998 5.60002 7.64182 5.60002 7.19999C5.60002 6.75817 5.95818 6.40001 6.40001 6.40001H7.19999C8.08327 6.40091 8.79911 7.11671 8.80001 8.00002V12ZM8.80001 4.8C8.80001 5.24182 8.44184 5.59998 8.00002 5.59998C7.55816 5.59998 7.19999 5.24182 7.19999 4.8V4.00001C7.19999 3.55818 7.55816 3.20002 7.99998 3.20002C8.44181 3.20002 8.79997 3.55818 8.79997 4.00001V4.8H8.80001Z" fill="black"/>
</svg>
