<svg width="16" height="16" viewBox="0 0 16 16" fill="none" xmlns="http://www.w3.org/2000/svg">
<path d="M13.9997 14.6666H1.99967C1.63148 14.6666 1.33301 14.3681 1.33301 14V9.45779C1.33301 9.37519 1.34452 9.293 1.36721 9.21359L2.52819 5.15015C2.60996 4.86394 2.87156 4.66663 3.16921 4.66663H5.66634H10.9997H12.8301C13.1278 4.66663 13.3894 4.86394 13.4712 5.15015L14.6321 9.21359C14.6548 9.293 14.6663 9.37519 14.6663 9.45779V14C14.6663 14.3681 14.3679 14.6666 13.9997 14.6666Z" stroke="black" stroke-width="1.5" stroke-linecap="round" stroke-linejoin="round"/>
<path d="M14.3327 9.33337H10.666C10.666 10.8061 9.47211 12 7.99935 12C6.52659 12 5.33268 10.8061 5.33268 9.33337H1.66602" stroke="black" stroke-width="1.5" stroke-linejoin="round"/>
</svg>
