<svg width="16" height="16" viewBox="0 0 16 16" fill="none" xmlns="http://www.w3.org/2000/svg">
<path d="M4.99967 4.66663H3.16921C2.87155 4.66663 2.60996 4.86394 2.52819 5.15015L1.36721 9.21359C1.34452 9.293 1.33301 9.37519 1.33301 9.45779V14C1.33301 14.3681 1.63148 14.6666 1.99967 14.6666H13.9997C14.3679 14.6666 14.6663 14.3681 14.6663 14V9.45779C14.6663 9.37519 14.6548 9.293 14.6321 9.21359L13.4712 5.15015C13.3894 4.86394 13.1278 4.66663 12.8301 4.66663H10.9997" stroke="black" stroke-width="1.5" stroke-linecap="round" stroke-linejoin="round"/>
<path d="M14.3327 9.33337H10.666C10.666 10.8061 9.47211 12 7.99935 12C6.52659 12 5.33268 10.8061 5.33268 9.33337H1.66602" stroke="black" stroke-width="1.5" stroke-linejoin="round"/>
<path d="M8 1L8 7.66667" stroke="black" stroke-width="1.5" stroke-linecap="round" stroke-linejoin="round"/>
<path d="M6 3L8 1L10 3" stroke="black" stroke-width="1.5" stroke-linecap="round" stroke-linejoin="round"/>
</svg>
