<svg width="16" height="16" viewBox="0 0 16 16" fill="none" xmlns="http://www.w3.org/2000/svg">
<path d="M12.3196 3.39406L11.5477 4.38568C13.2116 5.68033 14.0415 7.77635 13.7139 9.85635C13.474 11.3826 12.6539 12.7241 11.4049 13.6339C10.1555 14.5432 8.62713 14.9128 7.10086 14.6716C3.95014 14.1755 1.7898 11.2086 2.28507 8.05768C2.52502 6.53124 3.34538 5.18968 4.59454 4.28015C5.68516 3.48621 6.9884 3.10489 8.31741 3.18053L7.23116 4.32011L8.03699 5.08911L9.75169 3.28895L9.7521 3.28961L10.5203 2.48296L9.71503 1.71478L9.71461 1.71503L7.91511 0L7.14636 0.806651L8.31889 1.92344C6.72499 1.84806 5.16379 2.3117 3.8551 3.26459C2.33469 4.37164 1.33639 6.00443 1.04408 7.86264C0.44114 11.6977 3.07042 15.3094 6.9055 15.9129C7.27617 15.9713 7.64667 16 8.01478 16C9.492 16 10.9274 15.5357 12.1443 14.6494C13.6649 13.5422 14.663 11.9094 14.9553 10.0516C15.3541 7.52046 14.344 4.9693 12.3196 3.39406Z" fill="black"/>
<path d="M8.68993 12.5487V12.5484H8.69002V11.8253C9.54737 11.7296 10.3815 11.1881 10.3815 10.1599C10.3815 8.76281 9.08248 8.60262 8.13364 8.48578C7.52698 8.41329 7.06268 8.32914 7.06268 7.96161C7.06268 7.45066 7.78287 7.39558 8.0926 7.39558C8.55228 7.39558 9.04277 7.61167 9.2094 7.88746L9.25778 7.96764L10.2108 7.52662L10.1637 7.43051C9.80854 6.70445 9.17207 6.49438 8.68977 6.40958V5.77295H7.5738V6.40686C6.53487 6.56011 5.91789 7.13672 5.91789 7.96161C5.91789 9.30672 7.13922 9.44321 8.03026 9.54312C8.82436 9.63676 9.19404 9.83295 9.19404 10.1599C9.19404 10.7844 8.32917 10.8332 8.06403 10.8332C7.47389 10.8332 6.90488 10.5387 6.74031 10.1477L6.69944 10.0512L5.66406 10.4901L5.70535 10.5867C6.01194 11.3043 6.67351 11.754 7.57397 11.8604V12.5487H8.68993Z" fill="black"/>
</svg>
