<svg width="16" height="16" viewBox="0 0 16 16" fill="none" xmlns="http://www.w3.org/2000/svg">
<path d="M4 6.75C4.41421 6.75 4.75 6.41421 4.75 6C4.75 5.58579 4.41421 5.25 4 5.25V6.75ZM12 5.25C11.5858 5.25 11.25 5.58579 11.25 6C11.25 6.41421 11.5858 6.75 12 6.75V5.25ZM1.25 7V14H2.75V7H1.25ZM3 15.75H13V14.25H3V15.75ZM14.75 14V7H13.25V14H14.75ZM4 5.25H3V6.75H4V5.25ZM13 5.25H12V6.75H13V5.25ZM14.75 7C14.75 6.0335 13.9665 5.25 13 5.25V6.75C13.1381 6.75 13.25 6.86193 13.25 7H14.75ZM13 15.75C13.9665 15.75 14.75 14.9665 14.75 14H13.25C13.25 14.1381 13.1381 14.25 13 14.25V15.75ZM1.25 14C1.25 14.9665 2.0335 15.75 3 15.75V14.25C2.86193 14.25 2.75 14.1381 2.75 14H1.25ZM2.75 7C2.75 6.86193 2.86193 6.75 3 6.75V5.25C2.0335 5.25 1.25 6.0335 1.25 7H2.75Z" fill="black"/>
<path d="M8 1V9" stroke="black" stroke-width="1.5" stroke-linecap="round" stroke-linejoin="round"/>
<path d="M6 3L8 1L10 3" stroke="black" stroke-width="1.5" stroke-linecap="round" stroke-linejoin="round"/>
</svg>
