<svg width="16" height="16" viewBox="0 0 16 16" fill="none" xmlns="http://www.w3.org/2000/svg">
<path d="M2 2.25C1.58579 2.25 1.25 2.58579 1.25 3C1.25 3.41421 1.58579 3.75 2 3.75V2.25ZM11 3.75C11.4142 3.75 11.75 3.41421 11.75 3C11.75 2.58579 11.4142 2.25 11 2.25V3.75ZM2 3.75H11V2.25H2V3.75Z" fill="black"/>
<path d="M2 5.25C1.58579 5.25 1.25 5.58579 1.25 6C1.25 6.41421 1.58579 6.75 2 6.75V5.25ZM6 6.75C6.41421 6.75 6.75 6.41421 6.75 6C6.75 5.58579 6.41421 5.25 6 5.25V6.75ZM2 6.75H6V5.25H2V6.75Z" fill="black"/>
<path d="M2 8.25C1.58579 8.25 1.25 8.58579 1.25 9C1.25 9.41421 1.58579 9.75 2 9.75V8.25ZM5 9.75C5.41421 9.75 5.75 9.41421 5.75 9C5.75 8.58579 5.41421 8.25 5 8.25V9.75ZM2 9.75H5V8.25H2V9.75Z" fill="black"/>
<path d="M11 13L11 6" stroke="black" stroke-width="1.5" stroke-linecap="round" stroke-linejoin="round"/>
<path d="M8 8.9625L8.9875 7.975L10.9625 6L12.9375 7.975L13.925 8.9625" stroke="black" stroke-width="1.5" stroke-linecap="round" stroke-linejoin="round"/>
</svg>
