<svg width="18" height="18" viewBox="0 0 18 18" fill="none" xmlns="http://www.w3.org/2000/svg">
<path d="M1.66602 1.66663L16.3327 16.3333" stroke="black" stroke-width="1.5" stroke-linecap="round" stroke-linejoin="round"/>
<path d="M12.1465 8.37329C12.6926 8.63979 13.2032 8.97349 13.6665 9.36662" stroke="black" stroke-width="1.5" stroke-linecap="round" stroke-linejoin="round"/>
<path d="M4.33301 9.36665C5.32106 8.54053 6.51026 7.99079 7.77967 7.77332" stroke="black" stroke-width="1.5" stroke-linecap="round" stroke-linejoin="round"/>
<path d="M8.13965 4.36661C9.56792 4.25153 11.0047 4.42539 12.3643 4.87783C13.7239 5.33026 14.9785 6.052 16.053 6.99995" stroke="black" stroke-width="1.5" stroke-linecap="round" stroke-linejoin="round"/>
<path d="M1.94629 6.99996C2.87107 6.18252 3.93142 5.53277 5.07962 5.07996" stroke="black" stroke-width="1.5" stroke-linecap="round" stroke-linejoin="round"/>
<path d="M6.68555 11.74C7.36235 11.2592 8.172 11.0009 9.00221 11.0009C9.83243 11.0009 10.6421 11.2592 11.3189 11.74" stroke="black" stroke-width="1.5" stroke-linecap="round" stroke-linejoin="round"/>
<path d="M9 14.3334H9.00667" stroke="black" stroke-width="1.5" stroke-linecap="round" stroke-linejoin="round"/>
</svg>
